<?xml version="1.0" encoding="UTF-8"?>
<!DOCTYPE svg  PUBLIC '-//W3C//DTD SVG 20010904//EN'  'http://www.w3.org/TR/2001/REC-SVG-20010904/DTD/svg10.dtd'>
<svg width="388pt" height="458pt" version="1.0" viewBox="0 0 388 458" xmlns="http://www.w3.org/2000/svg">
<g transform="translate(0 458) scale(.1 -.1)">
<path d="m480 4170v-410h495 495v410 410h-495-495v-410z"/>
<path d="m2410 4170v-410h490 490v410 410h-490-490v-410z"/>
<path d="m0 3230v-410h1940 1940v410 410h-1940-1940v-410z"/>
<path d="m480 2290v-410h495 495v410 410h-495-495v-410z"/>
<path d="m2410 2290v-410h490 490v410 410h-490-490v-410z"/>
<path d="m0 1350v-410h1940 1940v410 410h-1940-1940v-410z"/>
<path d="m480 410v-410h495 495v410 410h-495-495v-410z"/>
<path d="m2410 410v-410h490 490v410 410h-490-490v-410z"/>
</g>
</svg>
