<?xml version="1.0" encoding="UTF-8"?>
<!DOCTYPE svg  PUBLIC '-//W3C//DTD SVG 20010904//EN'  'http://www.w3.org/TR/2001/REC-SVG-20010904/DTD/svg10.dtd'>
<svg width="418pt" height="505pt" version="1.0" viewBox="0 0 418 505" xmlns="http://www.w3.org/2000/svg">
<g transform="translate(0 505) scale(.1 -.1)">
<path d="m480 4605v-445h-240-240v-455-455h75 75v-275-275h165 165v-170-170h-240-240v-455-455h75 75v-275-275h165 165v-175-175h75 75v-275-275h570 570v278c1 152 0 355 0 450l-1 172h316 315v-175-175h75 75v-275-275h570 570v278c1 152 0 355 0 449l-1 173h240 240l3 283c2 155 2 400 0 544l-2 263h-165-165v185 184l-72 3-73 3-3 168-2 167h239 240l3 283c2 155 2 400 0 545l-2 262h-165-165v185 184l-72 3-73 3-3 263-2 262h-165-165v180 180h-480-480v-445-445l-312 2-313 3-3 263-2 262h-165-165v180 180h-480-480v-445zm1230-210v-235h-30-30v205 205h-105-105v30 30h135 135v-235zm1920 0v-235h-30-30v205 205h-105-105v30 30h135 135v-235zm-2042-62-3-168-72-3-73-3v171 170h75 75l-2-167zm1920 0-3-168-72-3-73-3v171 170h75 75l-2-167zm602-1083v-480h-240-240v-205-205h-30-30v235 235h240 240v420 420h-105-105v30 30h135 135v-480zm-123-2-2-353-237-3-238-2-2-263-3-262-72-3-73-3v446 445h240 240v175 175h75 75l-3-352zm-3717-208v-210h105 105v-30-30h-135-135v240 240h30 30v-210zm210 30v-181l-72 3-73 3-3 178-2 177h75 75v-180zm1920 0v-180h-405-405l-2-262-3-263-72-3-73-3v446 445h480 480v-180zm0-270v-30h-345-345v-205-205h-30-30v235 235h375 375v-30zm0-270v-170l-312 2-313 3-3 168-2 167h315 315v-170zm1710-1080v-480h-240-240v-450-450h-510-510v240 240h30 30v-210-210h450 450v450 450h240 240v420 420h-105-105v30 30h135 135v-480zm-123-2-2-353-237-3-238-2v-268c0-147-2-348-3-447l-2-180h-385-385l-3 178-2 177h315 315v450 450h240 240v175 175h75 75l-3-352zm-3717-208v-210h105 105v-30-30h-135-135v240 240h30 30v-210zm210 30v-181l-72 3-73 3-3 178-2 177h75 75v-180zm1920 0v-180h-405-405v-267c0-148-2-349-3-448l-2-180h-385-385l-3 178-2 177h315 315v450 450h480 480v-180zm0-270v-30h-345-345v-450-450h-510-510v240 240h30 30v-210-210h450 450v450 450h375 375v-30z"/>
</g>
</svg>
