<?xml version="1.0" encoding="UTF-8"?>
<!DOCTYPE svg  PUBLIC '-//W3C//DTD SVG 20010904//EN'  'http://www.w3.org/TR/2001/REC-SVG-20010904/DTD/svg10.dtd'>
<svg height="20px" version="1.0" viewBox="0 0 2052 519" xmlns="http://www.w3.org/2000/svg">
<g transform="translate(0 519) scale(.1 -.1)">
<path d="m0 4732v-462h1930 1930v175 175h65 65v-175-175h35 35v210 210h-100-100v30 30h130 130v-240-240h36c29 0 35 3 30 16-3 9-6 130-6 270v254h-158-159l-7 182c-3 100-8 183-9 185-2 1-868 6-1925 10l-1922 6v-461z"/>
<path d="m4807 4888c-4-161-7-366-7-455v-163h1210 1210v175 175h65 65v-175-175h35 35v210 210h-100-100v30 30h130 130v-240-240h35 35v98c0 53-3 175-7 270l-6 172h-159-158v78c0 44-3 127-7 185l-6 107h-1197-1197l-6-292z"/>
<path d="m8647 4888c-4-161-7-366-7-455v-163h1450 1450v175 175h65 65v-175-175h35 35v210 210h-100-100v30 30h130 130v-240-240h36c29 0 35 3 30 16-3 9-6 130-6 270v254h-160-160v78c0 44-3 127-7 185l-6 107h-1437-1437l-6-292z"/>
<path d="m12967 4888c-4-161-7-366-7-455v-163h1450 1450v175 175h65 65v-175-175h35 35v210 210h-100-100v30 30h130 130v-240-240h36c29 0 35 3 30 16-3 9-6 130-6 270v254h-160-160v78c0 44-3 127-7 185l-6 107h-1437-1437l-6-292z"/>
<path d="m16810 4725v-455h1445 1445v175 175h65 65v-175-175h35 35v210 210h-100-100v30 30h130 130v-240-240h35 35v98c0 53-3 175-7 270l-6 172h-159-158v78c0 44-3 127-7 185l-6 107h-1439-1438v-455z"/>
<path d="m157 4088c-4-95-7-221-7-280v-108h645 645v-175-175h490 490v455 455h-483-484l-6-107c-4-58-7-141-7-185v-78h-545-545v78c0 44-3 127-7 185l-6 107h-29-28v-215-215h580 580v-30-30h-610-610v245 245h-28-29l-6-172z"/>
<path d="m3990 4075v-185h-720-720v-270-270h35 35v240 240h720 720v215 215h-35-35v-185z"/>
<path d="m4120 4015v-245h-720-720v-210-210h35 35v175 175h720 720v280 280h-35-35v-245z"/>
<path d="m4330 3805v-455h485 485v455 455h-485-485v-455z"/>
<path d="m6720 4075v-185h-645-645v-270-270h35 35v240 240h610 610v-30-30h-580-580v-210-210h35 35v175 175h545 545v-175-175h490 490v175 175h65 65v-175-175h35 35v210 210h-100-100v30 30h130 130v-240-240h30 30v270 270h-160-160v73c0 39-3 123-7 185l-6 112h-484-483v-185z"/>
<path d="m8170 3805v-455h485 485v455 455h-485-485v-455z"/>
<path d="m11670 4075v-185h-1200-1200v-270-270h35 35v240 240h1200 1200v215 215h-35-35v-185z"/>
<path d="m11800 4015v-245h-1200-1200v-210-210h35 35v175 175h1200 1200v280 280h-35-35v-245z"/>
<path d="m12490 3805v-455h485 485v455 455h-485-485v-455z"/>
<path d="m15990 4075v-185h-1200-1200v-270-270h35 35v240 240h1200 1200v215 215h-35-35v-185z"/>
<path d="m16120 4015v-245h-1200-1200v-210-210h35 35v175 175h1200 1200v280 280h-35-35v-245z"/>
<path d="m16810 3805v-455h485 485v455 455h-485-485v-455z"/>
<path d="m19200 4075v-185h-645-645v-270-270h35 35v240 240h610 610v-30-30h-580-580v-210-210h35 35v175 175h545 545v-175-175h490 490v175 175h65 65v-175-175h35 35v210 210h-100-100v30 30h130 130v-240-240h36c29 0 35 3 30 16-3 9-6 130-6 270v254h-160-160v73c0 39-3 123-7 185l-6 112h-484-483v-185z"/>
<path d="m1440 2885v-455h490 490v455 455h-490-490v-455z"/>
<path d="m2550 2885v-455h35 35v455 455h-35-35v-455z"/>
<path d="m2680 2885v-455h35 35v455 455h-35-35v-455z"/>
<path d="m4330 2946c0-216-3-421-6-455l-7-61h1692 1691v455 455h-1685-1685v-394z"/>
<path d="m7830 2885v-455h35 35v455 455h-35-35v-455z"/>
<path d="m7960 2885v-455h30 30v455 455h-30-30v-455z"/>
<path d="m8167 3053c-4-157-7-362-7-455v-168h490 490v455 455h-483-484l-6-287z"/>
<path d="m9270 2885v-455h35 35v455 455h-35-35v-455z"/>
<path d="m9400 2885v-455h35 35v455 455h-35-35v-455z"/>
<path d="m10567 3033c-4-170-7-374-7-455v-148h730 730v175 175h65 65v-175-175h35 35v210 210h-100-100v30 30h130 130v-240-240h30 30v270 270h-160-160v73c0 39-3 123-7 185l-6 112h-717-717l-6-307z"/>
<path d="m12487 3053c-4-157-7-362-7-455v-168h490 490v455 455h-483-484l-6-287z"/>
<path d="m13590 2885v-455h35 35v455 455h-35-35v-455z"/>
<path d="m13720 2885v-455h35 35v455 455h-35-35v-455z"/>
<path d="m14887 3033c-4-170-7-374-7-455v-148h730 730v175 175h65 65v-175-175h35 35v210 210h-100-100v30 30h130 130v-240-240h30 30v270 270h-160-160v73c0 39-3 123-7 185l-6 112h-717-717l-6-307z"/>
<path d="m16807 3083c-4-141-7-346-7-455v-198h1450 1450v455 455h-1443-1444l-6-257z"/>
<path d="m20310 3155v-185h-240-240v-270-270h35 35v240 240h240 240v215 215h-35-35v-185z"/>
<path d="m20440 3095v-245h-240-240v-210-210h35 35v175 175h240 240v280 280h-35-35v-245z"/>
<path d="m1440 1965v-455h490 490v455 455h-490-490v-455z"/>
<path d="m2550 1965v-455h35 35v455 455h-35-35v-455z"/>
<path d="m2680 1965v-455h35 35v455 455h-35-35v-455z"/>
<path d="m4320 1965v-455h490 490v455 455h-490-490v-455z"/>
<path d="m6720 2235v-185h-645-645v-270-270h35 35v240 240h610 610v-30-30h-580-580v-210-210h35 35v175 175h545 545v-175-175h490 490v455 455h-490-490v-185z"/>
<path d="m7830 1965v-455h35 35v455 455h-35-35v-455z"/>
<path d="m7960 1965v-455h35 35v153c0 85-3 289-7 455l-6 302h-29-28v-455z"/>
<path d="m8160 1965v-455h490 490v455 455h-490-490v-455z"/>
<path d="m9270 1965v-455h35 35v455 455h-35-35v-455z"/>
<path d="m9400 1965v-455h35 35v455 455h-35-35v-455z"/>
<path d="m11047 2128c-4-161-7-366-7-455v-163h490 490v455 455h-483-484l-6-292z"/>
<path d="m12150 1965v-455h35 35v455 455h-35-35v-455z"/>
<path d="m12280 1965v-455h35 35v148c0 81-3 285-7 455l-6 307h-29-28v-455z"/>
<path d="m12480 1965v-455h490 490v455 455h-490-490v-455z"/>
<path d="m13590 1965v-455h35 35v455 455h-35-35v-455z"/>
<path d="m13720 1965v-455h35 35v455 455h-35-35v-455z"/>
<path d="m15367 2128c-4-161-7-366-7-455v-163h490 490v455 455h-483-484l-6-292z"/>
<path d="m16470 1965v-455h35 35v455 455h-35-35v-455z"/>
<path d="m16600 1965v-455h35 35v148c0 81-3 285-7 455l-6 307h-29-28v-455z"/>
<path d="m16800 1965v-455h490 490v455 455h-490-490v-455z"/>
<path d="m19200 2235v-185h-645-645v-270-270h35 35v240 240h610 610v-30-30h-580-580v-210-210h35 35v175 175h545 545v-175-175h490 490v175 175h65 65v-175-175h35 35v210 210h-100-100v30 30h130 130v-240-240h30 30v270 270h-160-160v73c0 39-3 123-7 185l-6 112h-484-483v-185z"/>
<path d="m1440 1045v-455h490 490v455 455h-490-490v-455z"/>
<path d="m2550 1045v-455h35 35v455 455h-35-35v-455z"/>
<path d="m2680 1045v-455h35 35v455 455h-35-35v-455z"/>
<path d="m4320 1045v-455h490 490v455 455h-490-490v-455z"/>
<path d="m5430 1045v-455h35 35v455 455h-35-35v-455z"/>
<path d="m5560 1045v-455h35 35v455 455h-35-35v-455z"/>
<path d="m6720 1045v-455h490 490v455 455h-490-490v-455z"/>
<path d="m7830 1045v-455h35 35v455 455h-35-35v-455z"/>
<path d="m7960 1045v-455h35 35v455 455h-35-35v-455z"/>
<path d="m8317 1328c-4-95-7-221-7-280v-108h165 165v-175-175h1450 1450v455 455h-1450-1450v-185-185h-65-65v185 185h-35-35v-215-215h100 100v-30-30h-130-130v245 245h-28-29l-6-172z"/>
<path d="m12150 1315v-185h-240-240v-270-270h35 35v240 240h240 240v215 215h-35-35v-185z"/>
<path d="m12280 1255v-245h-240-240v-210-210h35 35v175 175h240 240v280 280h-35-35v-245z"/>
<path d="m12637 1328c-4-95-7-221-7-280v-108h165 165v-175-175h1450 1450v455 455h-1450-1450v-185-185h-65-65v185 185h-35-35v-215-215h100 100v-30-30h-130-130v245 245h-28-29l-6-172z"/>
<path d="m16470 1315v-185h-240-240v-270-270h35 35v240 240h240 240v215 215h-35-35v-185z"/>
<path d="m16600 1255v-245h-240-240v-210-210h35 35v175 175h240 240v280 280h-35-35v-245z"/>
<path d="m16800 1045v-455h490 490v455 455h-490-490v-455z"/>
<path d="m17910 1045v-455h35 35v455 455h-35-35v-455z"/>
<path d="m18040 1045v-455h35 35v455 455h-35-35v-455z"/>
<path d="m19200 1045v-455h490 490v455 455h-490-490v-455z"/>
<path d="m20310 1045v-455h35 35v455 455h-35-35v-455z"/>
<path d="m20440 1045v-455h35 35v148c0 81-3 285-7 455l-6 307h-29-28v-455z"/>
<path d="m1597 408c-4-95-7-221-7-280v-108h580 580v280 280h-35-35v-245-245h-510-510v245 245h-28-29l-6-172z"/>
<path d="m1720 365v-215h450 450v215 215h-35-35v-185-185h-380-380v185 185h-35-35v-215z"/>
<path d="m4477 408c-4-95-7-221-7-280v-108h580 580v280 280h-35-35v-245-245h-510-510v245 245h-28-29l-6-172z"/>
<path d="m4600 365v-215h450 450v215 215h-35-35v-185-185h-380-380v185 185h-35-35v-215z"/>
<path d="m6877 408c-4-95-7-221-7-280v-108h580 580v280 280h-35-35v-245-245h-510-510v245 245h-28-29l-6-172z"/>
<path d="m7e3 365v-215h450 450v215 215h-35-35v-185-185h-380-380v185 185h-35-35v-215z"/>
<path d="m8797 408c-4-95-7-221-7-280v-108h1540 1540v280 280h-35-35v-245-245h-1470-1470v245 245h-28-29l-6-172z"/>
<path d="m8920 365v-215h1410 1410v215 215h-35-35v-185-185h-1340-1340v185 185h-35-35v-215z"/>
<path d="m13117 408c-4-95-7-221-7-280v-108h1540 1540v280 280h-35-35v-245-245h-1470-1470v245 245h-28-29l-6-172z"/>
<path d="m13240 365v-215h1410 1410v215 215h-35-35v-185-185h-1340-1340v185 185h-35-35v-215z"/>
<path d="m16957 408c-4-95-7-221-7-280v-108h580 580v280 280h-35-35v-245-245h-510-510v245 245h-28-29l-6-172z"/>
<path d="m17080 365v-215h450 450v215 215h-35-35v-185-185h-380-380v185 185h-35-35v-215z"/>
<path d="m19357 408c-4-95-7-221-7-280v-108h580 580v280 280h-35-35v-245-245h-510-510v245 245h-28-29l-6-172z"/>
<path d="m19480 365v-215h450 450v215 215h-35-35v-185-185h-380-380v185 185h-35-35v-215z"/>
</g>
</svg>
